<mxfile host="app.diagrams.net" agent="Mozilla/5.0 (Windows NT 10.0; Win64; x64) AppleWebKit/537.36 (KHTML, like Gecko) Chrome/133.0.0.0 Safari/537.36 Edg/133.0.0.0" version="26.0.16">
  <diagram id="3228e29e-7158-1315-38df-8450db1d8a1d" name="Page-1">
    <mxGraphModel dx="1426" dy="781" grid="1" gridSize="10" guides="1" tooltips="1" connect="1" arrows="1" fold="1" page="1" pageScale="1" pageWidth="1920" pageHeight="1200" background="none" math="0" shadow="0">
      <root>
        <mxCell id="0" />
        <mxCell id="1" parent="0" />
        <mxCell id="21635" value="&lt;div style=&quot;text-align: center ; font-size: 16px&quot;&gt;&lt;br&gt;&lt;/div&gt;" style="ellipse;whiteSpace=wrap;html=1;aspect=fixed;rounded=1;shadow=0;glass=0;labelBackgroundColor=none;strokeColor=none;strokeWidth=1;fillColor=#FFF8CC;gradientColor=none;fontFamily=Helvetica;fontSize=16;fontColor=#2F5B7C;align=center;verticalAlign=top;spacing=15;opacity=90;" parent="1" vertex="1">
          <mxGeometry x="724.5" y="110" width="45" height="45" as="geometry" />
        </mxCell>
        <mxCell id="21636" value="" style="ellipse;whiteSpace=wrap;html=1;aspect=fixed;rounded=1;shadow=0;glass=0;labelBackgroundColor=none;strokeColor=none;strokeWidth=1;fillColor=#FF05EE;gradientColor=none;fontFamily=Helvetica;fontSize=16;fontColor=#2F5B7C;align=left;opacity=50;spacing=15;" parent="1" vertex="1">
          <mxGeometry x="650" y="120" width="45" height="45" as="geometry" />
        </mxCell>
        <mxCell id="21638" value="" style="ellipse;whiteSpace=wrap;html=1;aspect=fixed;rounded=1;shadow=0;glass=0;labelBackgroundColor=none;strokeColor=none;strokeWidth=1;fillColor=#736CA8;gradientColor=none;fontFamily=Helvetica;fontSize=16;fontColor=#2F5B7C;align=left;opacity=50;spacing=15;" parent="1" vertex="1">
          <mxGeometry x="10" y="63.5" width="200" height="200" as="geometry" />
        </mxCell>
        <mxCell id="21643" value="U" style="ellipse;whiteSpace=wrap;html=1;aspect=fixed;rounded=1;shadow=0;glass=0;labelBackgroundColor=none;strokeColor=none;strokeWidth=1;fillColor=#82B366;gradientColor=none;fontFamily=Helvetica;fontSize=16;fontColor=#2F5B7C;align=center;opacity=50;spacing=15;" parent="1" vertex="1">
          <mxGeometry x="455" y="136" width="45" height="45" as="geometry" />
        </mxCell>
        <mxCell id="21645" value="" style="ellipse;whiteSpace=wrap;html=1;aspect=fixed;rounded=1;shadow=0;glass=0;labelBackgroundColor=none;strokeColor=none;strokeWidth=1;fillColor=#05E6FF;gradientColor=none;fontFamily=Helvetica;fontSize=16;fontColor=#2F5B7C;align=center;opacity=50;spacing=15;" parent="1" vertex="1">
          <mxGeometry x="710" y="50" width="45" height="45" as="geometry" />
        </mxCell>
        <mxCell id="21646" value="D" style="ellipse;whiteSpace=wrap;html=1;aspect=fixed;rounded=1;shadow=0;glass=0;labelBackgroundColor=none;strokeColor=none;strokeWidth=1;fillColor=#8095FF;gradientColor=none;fontFamily=Helvetica;fontSize=16;fontColor=#2F5B7C;align=center;opacity=50;spacing=15;" parent="1" vertex="1">
          <mxGeometry x="520" y="200" width="45" height="45" as="geometry" />
        </mxCell>
        <mxCell id="21647" value="U" style="ellipse;whiteSpace=wrap;html=1;aspect=fixed;rounded=1;shadow=0;glass=0;labelBackgroundColor=none;strokeColor=none;strokeWidth=1;fillColor=light-dark(#B36565,#A4A0C6);gradientColor=none;fontFamily=Helvetica;fontSize=16;fontColor=#2F5B7C;align=center;opacity=50;spacing=15;" parent="1" vertex="1">
          <mxGeometry x="370" y="155" width="45" height="45" as="geometry" />
        </mxCell>
        <mxCell id="21637" value="&lt;div style=&quot;text-align: center; font-size: 16px;&quot;&gt;U&lt;/div&gt;" style="ellipse;whiteSpace=wrap;html=1;aspect=fixed;rounded=1;shadow=0;glass=0;labelBackgroundColor=none;strokeColor=#82B366;strokeWidth=1;fillColor=#82B366;fontFamily=Helvetica;fontSize=16;align=center;opacity=50;verticalAlign=top;spacing=15;" parent="1" vertex="1">
          <mxGeometry x="220" y="410" width="120" height="120" as="geometry" />
        </mxCell>
        <mxCell id="U8a9kqxpGam07MCW7ury-21656" value="" style="ellipse;whiteSpace=wrap;html=1;aspect=fixed;rounded=1;shadow=0;glass=0;labelBackgroundColor=none;strokeColor=none;strokeWidth=1;fillColor=#05E6FF;gradientColor=none;fontFamily=Helvetica;fontSize=16;fontColor=#2F5B7C;align=right;opacity=50;spacing=15;" vertex="1" parent="1">
          <mxGeometry x="690" y="410" width="120" height="120" as="geometry" />
        </mxCell>
        <mxCell id="U8a9kqxpGam07MCW7ury-21657" value="&lt;div style=&quot;text-align: center; font-size: 16px;&quot;&gt;&lt;br&gt;&lt;/div&gt;" style="ellipse;whiteSpace=wrap;html=1;aspect=fixed;rounded=1;shadow=0;glass=0;labelBackgroundColor=none;strokeColor=none;strokeWidth=1;fillColor=light-dark(#FF05EE,#EC8F82);gradientColor=none;fontFamily=Helvetica;fontSize=16;fontColor=#2F5B7C;align=center;opacity=50;verticalAlign=bottom;spacingBottom=15;spacing=15;" vertex="1" parent="1">
          <mxGeometry x="840" y="410" width="120" height="120" as="geometry" />
        </mxCell>
        <mxCell id="U8a9kqxpGam07MCW7ury-21658" value="&lt;div style=&quot;text-align: center; font-size: 16px;&quot;&gt;&lt;br&gt;&lt;/div&gt;" style="ellipse;whiteSpace=wrap;html=1;aspect=fixed;rounded=1;shadow=0;glass=0;labelBackgroundColor=none;strokeColor=light-dark(#ffff00, #6d5100);strokeWidth=1;fillColor=light-dark(#FFF8CC,#281D00);fontFamily=Helvetica;fontSize=16;align=center;opacity=80;verticalAlign=top;spacing=15;" vertex="1" parent="1">
          <mxGeometry x="990" y="410" width="120" height="120" as="geometry" />
        </mxCell>
        <mxCell id="U8a9kqxpGam07MCW7ury-21660" value="&lt;div style=&quot;text-align: center; font-size: 16px;&quot;&gt;U&lt;/div&gt;" style="ellipse;whiteSpace=wrap;html=1;aspect=fixed;rounded=1;shadow=0;glass=0;labelBackgroundColor=none;strokeColor=light-dark(#b36565, #446e2c);strokeWidth=1;fillColor=light-dark(#B36565,#446E2C);fontFamily=Helvetica;fontSize=16;align=center;opacity=50;verticalAlign=top;spacing=15;" vertex="1" parent="1">
          <mxGeometry x="70" y="410" width="120" height="120" as="geometry" />
        </mxCell>
        <mxCell id="U8a9kqxpGam07MCW7ury-21661" value="&lt;div style=&quot;text-align: center; font-size: 16px;&quot;&gt;D&lt;/div&gt;" style="ellipse;whiteSpace=wrap;html=1;aspect=fixed;rounded=1;shadow=0;glass=0;labelBackgroundColor=none;strokeColor=#6c8ebf;strokeWidth=1;fillColor=light-dark(#8095FF,#1D293B);fontFamily=Helvetica;fontSize=16;align=center;opacity=50;verticalAlign=bottom;spacingBottom=15;spacing=15;" vertex="1" parent="1">
          <mxGeometry x="380" y="410" width="120" height="120" as="geometry" />
        </mxCell>
        <mxCell id="U8a9kqxpGam07MCW7ury-21662" value="Red" style="text;strokeColor=default;align=center;fillColor=none;html=1;verticalAlign=middle;whiteSpace=wrap;rounded=0;strokeWidth=0;fontSize=14;" vertex="1" parent="1">
          <mxGeometry x="90" y="370" width="80" height="40" as="geometry" />
        </mxCell>
        <mxCell id="U8a9kqxpGam07MCW7ury-21663" value="" style="endArrow=none;html=1;rounded=0;strokeWidth=2;exitX=0.138;exitY=-0.075;exitDx=0;exitDy=0;exitPerimeter=0;" edge="1" parent="1">
          <mxGeometry width="50" height="50" relative="1" as="geometry">
            <mxPoint x="721.04" y="381" as="sourcePoint" />
            <mxPoint x="780" y="381" as="targetPoint" />
          </mxGeometry>
        </mxCell>
        <mxCell id="U8a9kqxpGam07MCW7ury-21664" value="Green" style="text;strokeColor=default;align=center;fillColor=none;html=1;verticalAlign=middle;whiteSpace=wrap;rounded=0;strokeWidth=0;fontSize=14;" vertex="1" parent="1">
          <mxGeometry x="240" y="370" width="80" height="40" as="geometry" />
        </mxCell>
        <mxCell id="U8a9kqxpGam07MCW7ury-21665" value="Blue" style="text;strokeColor=default;align=center;fillColor=none;html=1;verticalAlign=middle;whiteSpace=wrap;rounded=0;strokeWidth=0;fontSize=14;" vertex="1" parent="1">
          <mxGeometry x="400" y="370" width="80" height="40" as="geometry" />
        </mxCell>
        <mxCell id="U8a9kqxpGam07MCW7ury-21666" value="Anti-Red" style="text;strokeColor=default;align=center;fillColor=none;html=1;verticalAlign=middle;whiteSpace=wrap;rounded=0;strokeWidth=0;fontSize=14;" vertex="1" parent="1">
          <mxGeometry x="710" y="370" width="80" height="40" as="geometry" />
        </mxCell>
        <mxCell id="U8a9kqxpGam07MCW7ury-21667" value="Anti-Green" style="text;strokeColor=default;align=center;fillColor=none;html=1;verticalAlign=middle;whiteSpace=wrap;rounded=0;strokeWidth=0;fontSize=14;" vertex="1" parent="1">
          <mxGeometry x="860" y="370" width="80" height="40" as="geometry" />
        </mxCell>
        <mxCell id="U8a9kqxpGam07MCW7ury-21668" value="Anti-Blue" style="text;strokeColor=default;align=center;fillColor=none;html=1;verticalAlign=middle;whiteSpace=wrap;rounded=0;strokeWidth=0;fontSize=14;" vertex="1" parent="1">
          <mxGeometry x="1010" y="370" width="80" height="40" as="geometry" />
        </mxCell>
        <mxCell id="U8a9kqxpGam07MCW7ury-21669" value="" style="endArrow=none;html=1;rounded=0;strokeWidth=2;exitX=0.138;exitY=-0.075;exitDx=0;exitDy=0;exitPerimeter=0;" edge="1" parent="1">
          <mxGeometry width="50" height="50" relative="1" as="geometry">
            <mxPoint x="870.52" y="381" as="sourcePoint" />
            <mxPoint x="929.48" y="381" as="targetPoint" />
          </mxGeometry>
        </mxCell>
        <mxCell id="U8a9kqxpGam07MCW7ury-21670" value="" style="endArrow=none;html=1;rounded=0;strokeWidth=2;exitX=0.138;exitY=-0.075;exitDx=0;exitDy=0;exitPerimeter=0;" edge="1" parent="1">
          <mxGeometry width="50" height="50" relative="1" as="geometry">
            <mxPoint x="1020.52" y="381" as="sourcePoint" />
            <mxPoint x="1079.48" y="381" as="targetPoint" />
          </mxGeometry>
        </mxCell>
        <mxCell id="U8a9kqxpGam07MCW7ury-21672" value="" style="ellipse;whiteSpace=wrap;html=1;aspect=fixed;rounded=1;shadow=0;glass=0;labelBackgroundColor=none;strokeColor=none;strokeWidth=1;fillColor=#FF05EE;gradientColor=none;fontFamily=Helvetica;fontSize=16;fontColor=#2F5B7C;align=left;opacity=20;spacing=15;" vertex="1" parent="1">
          <mxGeometry x="90" y="616" width="15" height="15" as="geometry" />
        </mxCell>
        <mxCell id="U8a9kqxpGam07MCW7ury-21673" value="" style="ellipse;whiteSpace=wrap;html=1;aspect=fixed;rounded=1;shadow=0;glass=0;labelBackgroundColor=none;strokeColor=none;strokeWidth=1;fillColor=#82B366;gradientColor=none;fontFamily=Helvetica;fontSize=16;fontColor=#2F5B7C;align=center;opacity=50;spacing=15;" vertex="1" parent="1">
          <mxGeometry x="175" y="610" width="45" height="45" as="geometry" />
        </mxCell>
        <mxCell id="U8a9kqxpGam07MCW7ury-21674" value="" style="ellipse;whiteSpace=wrap;html=1;aspect=fixed;rounded=1;shadow=0;glass=0;labelBackgroundColor=none;strokeColor=none;strokeWidth=1;fillColor=#05E6FF;gradientColor=none;fontFamily=Helvetica;fontSize=16;fontColor=#2F5B7C;align=center;opacity=50;spacing=15;" vertex="1" parent="1">
          <mxGeometry x="180" y="630" width="15" height="15" as="geometry" />
        </mxCell>
        <mxCell id="U8a9kqxpGam07MCW7ury-21675" value="" style="ellipse;whiteSpace=wrap;html=1;aspect=fixed;rounded=1;shadow=0;glass=0;labelBackgroundColor=none;strokeColor=none;strokeWidth=1;fillColor=#8095FF;gradientColor=none;fontFamily=Helvetica;fontSize=16;fontColor=#2F5B7C;align=center;opacity=50;spacing=15;" vertex="1" parent="1">
          <mxGeometry x="175" y="680" width="45" height="45" as="geometry" />
        </mxCell>
        <mxCell id="U8a9kqxpGam07MCW7ury-21676" value="" style="ellipse;whiteSpace=wrap;html=1;aspect=fixed;rounded=1;shadow=0;glass=0;labelBackgroundColor=none;strokeColor=none;strokeWidth=1;fillColor=light-dark(#B36565,#A4A0C6);gradientColor=none;fontFamily=Helvetica;fontSize=16;fontColor=#2F5B7C;align=center;opacity=50;spacing=15;" vertex="1" parent="1">
          <mxGeometry x="87.5" y="610" width="45" height="45" as="geometry" />
        </mxCell>
        <mxCell id="U8a9kqxpGam07MCW7ury-21671" value="&lt;div style=&quot;text-align: center ; font-size: 16px&quot;&gt;&lt;br&gt;&lt;/div&gt;" style="ellipse;whiteSpace=wrap;html=1;aspect=fixed;rounded=1;shadow=0;glass=0;labelBackgroundColor=none;strokeColor=none;strokeWidth=1;fillColor=#FFF8CC;gradientColor=none;fontFamily=Helvetica;fontSize=16;fontColor=#2F5B7C;align=center;verticalAlign=top;spacing=15;opacity=90;" vertex="1" parent="1">
          <mxGeometry x="87.5" y="680" width="45" height="45" as="geometry" />
        </mxCell>
        <mxCell id="U8a9kqxpGam07MCW7ury-21678" value="" style="ellipse;whiteSpace=wrap;html=1;aspect=fixed;rounded=1;shadow=0;glass=0;labelBackgroundColor=none;strokeColor=none;strokeWidth=1;fillColor=#FF05EE;gradientColor=none;fontFamily=Helvetica;fontSize=16;fontColor=#2F5B7C;align=left;opacity=20;spacing=15;" vertex="1" parent="1">
          <mxGeometry x="105" y="635" width="15" height="15" as="geometry" />
        </mxCell>
        <mxCell id="U8a9kqxpGam07MCW7ury-21679" value="" style="ellipse;whiteSpace=wrap;html=1;aspect=fixed;rounded=1;shadow=0;glass=0;labelBackgroundColor=none;strokeColor=none;strokeWidth=1;fillColor=#FF05EE;gradientColor=none;fontFamily=Helvetica;fontSize=16;fontColor=#2F5B7C;align=left;opacity=20;spacing=15;" vertex="1" parent="1">
          <mxGeometry x="110" y="616" width="15" height="15" as="geometry" />
        </mxCell>
        <mxCell id="U8a9kqxpGam07MCW7ury-21680" value="" style="ellipse;whiteSpace=wrap;html=1;aspect=fixed;rounded=1;shadow=0;glass=0;labelBackgroundColor=none;strokeColor=none;strokeWidth=1;fillColor=#05E6FF;gradientColor=none;fontFamily=Helvetica;fontSize=16;fontColor=#2F5B7C;align=center;opacity=50;spacing=15;" vertex="1" parent="1">
          <mxGeometry x="190" y="616" width="15" height="15" as="geometry" />
        </mxCell>
        <mxCell id="U8a9kqxpGam07MCW7ury-21683" value="" style="ellipse;whiteSpace=wrap;html=1;aspect=fixed;rounded=1;shadow=0;glass=0;labelBackgroundColor=none;strokeColor=none;strokeWidth=1;fillColor=#05E6FF;gradientColor=none;fontFamily=Helvetica;fontSize=16;fontColor=#2F5B7C;align=center;opacity=50;spacing=15;" vertex="1" parent="1">
          <mxGeometry x="199" y="632" width="15" height="15" as="geometry" />
        </mxCell>
        <mxCell id="U8a9kqxpGam07MCW7ury-21684" value="" style="ellipse;whiteSpace=wrap;html=1;aspect=fixed;rounded=1;shadow=0;glass=0;labelBackgroundColor=none;strokeColor=none;strokeWidth=1;fillColor=light-dark(#B36565,#A4A0C6);gradientColor=none;fontFamily=Helvetica;fontSize=16;fontColor=#2F5B7C;align=center;opacity=50;spacing=15;" vertex="1" parent="1">
          <mxGeometry x="95" y="680" width="15" height="15" as="geometry" />
        </mxCell>
        <mxCell id="U8a9kqxpGam07MCW7ury-21685" value="" style="ellipse;whiteSpace=wrap;html=1;aspect=fixed;rounded=1;shadow=0;glass=0;labelBackgroundColor=none;strokeColor=none;strokeWidth=1;fillColor=light-dark(#B36565,#A4A0C6);gradientColor=none;fontFamily=Helvetica;fontSize=16;fontColor=#2F5B7C;align=center;opacity=50;spacing=15;" vertex="1" parent="1">
          <mxGeometry x="116.5" y="690" width="15" height="15" as="geometry" />
        </mxCell>
        <mxCell id="U8a9kqxpGam07MCW7ury-21687" value="" style="ellipse;whiteSpace=wrap;html=1;aspect=fixed;rounded=1;shadow=0;glass=0;labelBackgroundColor=none;strokeColor=none;strokeWidth=1;fillColor=light-dark(#B36565,#A4A0C6);gradientColor=none;fontFamily=Helvetica;fontSize=16;fontColor=#2F5B7C;align=center;opacity=50;spacing=15;" vertex="1" parent="1">
          <mxGeometry x="95" y="705" width="15" height="15" as="geometry" />
        </mxCell>
        <mxCell id="U8a9kqxpGam07MCW7ury-21688" value="" style="ellipse;whiteSpace=wrap;html=1;aspect=fixed;rounded=1;shadow=0;glass=0;labelBackgroundColor=none;strokeColor=none;strokeWidth=1;fillColor=#82B366;gradientColor=none;fontFamily=Helvetica;fontSize=16;fontColor=#2F5B7C;align=center;opacity=50;spacing=15;" vertex="1" parent="1">
          <mxGeometry x="310" y="605" width="45" height="45" as="geometry" />
        </mxCell>
        <mxCell id="U8a9kqxpGam07MCW7ury-21689" value="&lt;div style=&quot;text-align: center ; font-size: 16px&quot;&gt;&lt;br&gt;&lt;/div&gt;" style="ellipse;whiteSpace=wrap;html=1;aspect=fixed;rounded=1;shadow=0;glass=0;labelBackgroundColor=none;strokeColor=none;strokeWidth=1;fillColor=#FFF8CC;gradientColor=none;fontFamily=Helvetica;fontSize=16;fontColor=#2F5B7C;align=center;verticalAlign=top;spacing=15;opacity=90;" vertex="1" parent="1">
          <mxGeometry x="320" y="610" width="15" height="15" as="geometry" />
        </mxCell>
        <mxCell id="U8a9kqxpGam07MCW7ury-21690" value="&lt;div style=&quot;text-align: center ; font-size: 16px&quot;&gt;&lt;br&gt;&lt;/div&gt;" style="ellipse;whiteSpace=wrap;html=1;aspect=fixed;rounded=1;shadow=0;glass=0;labelBackgroundColor=none;strokeColor=none;strokeWidth=1;fillColor=#FFF8CC;gradientColor=none;fontFamily=Helvetica;fontSize=16;fontColor=#2F5B7C;align=center;verticalAlign=top;spacing=15;opacity=90;" vertex="1" parent="1">
          <mxGeometry x="335" y="625" width="15" height="15" as="geometry" />
        </mxCell>
        <mxCell id="U8a9kqxpGam07MCW7ury-21691" value="&lt;div style=&quot;text-align: center ; font-size: 16px&quot;&gt;&lt;br&gt;&lt;/div&gt;" style="ellipse;whiteSpace=wrap;html=1;aspect=fixed;rounded=1;shadow=0;glass=0;labelBackgroundColor=none;strokeColor=none;strokeWidth=1;fillColor=#FFF8CC;gradientColor=none;fontFamily=Helvetica;fontSize=16;fontColor=#2F5B7C;align=center;verticalAlign=top;spacing=15;opacity=90;" vertex="1" parent="1">
          <mxGeometry x="320" y="630" width="15" height="15" as="geometry" />
        </mxCell>
        <mxCell id="U8a9kqxpGam07MCW7ury-21692" value="" style="ellipse;whiteSpace=wrap;html=1;aspect=fixed;rounded=1;shadow=0;glass=0;labelBackgroundColor=none;strokeColor=none;strokeWidth=1;fillColor=#05E6FF;gradientColor=none;fontFamily=Helvetica;fontSize=16;fontColor=#2F5B7C;align=center;opacity=50;spacing=15;" vertex="1" parent="1">
          <mxGeometry x="190" y="702" width="15" height="15" as="geometry" />
        </mxCell>
        <mxCell id="U8a9kqxpGam07MCW7ury-21693" value="" style="ellipse;whiteSpace=wrap;html=1;aspect=fixed;rounded=1;shadow=0;glass=0;labelBackgroundColor=none;strokeColor=none;strokeWidth=1;fillColor=#05E6FF;gradientColor=none;fontFamily=Helvetica;fontSize=16;fontColor=#2F5B7C;align=center;opacity=50;spacing=15;" vertex="1" parent="1">
          <mxGeometry x="200" y="688" width="15" height="15" as="geometry" />
        </mxCell>
        <mxCell id="U8a9kqxpGam07MCW7ury-21694" value="" style="ellipse;whiteSpace=wrap;html=1;aspect=fixed;rounded=1;shadow=0;glass=0;labelBackgroundColor=none;strokeColor=none;strokeWidth=1;fillColor=#05E6FF;gradientColor=none;fontFamily=Helvetica;fontSize=16;fontColor=#2F5B7C;align=center;opacity=50;spacing=15;" vertex="1" parent="1">
          <mxGeometry x="180" y="687" width="15" height="15" as="geometry" />
        </mxCell>
        <mxCell id="U8a9kqxpGam07MCW7ury-21699" value="" style="ellipse;whiteSpace=wrap;html=1;aspect=fixed;rounded=1;shadow=0;glass=0;labelBackgroundColor=none;strokeColor=none;strokeWidth=1;fillColor=#FF05EE;gradientColor=none;fontFamily=Helvetica;fontSize=16;fontColor=#2F5B7C;align=left;opacity=50;spacing=15;" vertex="1" parent="1">
          <mxGeometry x="620" y="585" width="40" height="40" as="geometry" />
        </mxCell>
        <mxCell id="U8a9kqxpGam07MCW7ury-21702" value="" style="ellipse;whiteSpace=wrap;html=1;aspect=fixed;rounded=1;shadow=0;glass=0;labelBackgroundColor=none;strokeColor=none;strokeWidth=1;fillColor=#8095FF;gradientColor=none;fontFamily=Helvetica;fontSize=16;fontColor=#2F5B7C;align=center;opacity=50;spacing=15;" vertex="1" parent="1">
          <mxGeometry x="600" y="600" width="40" height="40" as="geometry" />
        </mxCell>
        <mxCell id="U8a9kqxpGam07MCW7ury-21705" value="" style="ellipse;whiteSpace=wrap;html=1;aspect=fixed;rounded=1;shadow=0;glass=0;labelBackgroundColor=none;strokeColor=none;strokeWidth=1;fillColor=#8095FF;gradientColor=none;fontFamily=Helvetica;fontSize=16;fontColor=#2F5B7C;align=center;opacity=50;spacing=15;" vertex="1" parent="1">
          <mxGeometry x="640" y="600" width="40" height="40" as="geometry" />
        </mxCell>
        <mxCell id="U8a9kqxpGam07MCW7ury-21706" value="" style="ellipse;whiteSpace=wrap;html=1;aspect=fixed;rounded=1;shadow=0;glass=0;labelBackgroundColor=none;strokeColor=none;strokeWidth=1;fillColor=#FF05EE;gradientColor=none;fontFamily=Helvetica;fontSize=16;fontColor=#2F5B7C;align=left;opacity=50;spacing=15;" vertex="1" parent="1">
          <mxGeometry x="620" y="615" width="40" height="40" as="geometry" />
        </mxCell>
        <mxCell id="U8a9kqxpGam07MCW7ury-21707" value="" style="ellipse;whiteSpace=wrap;html=1;aspect=fixed;rounded=1;shadow=0;glass=0;labelBackgroundColor=none;strokeColor=none;strokeWidth=1;fillColor=#8095FF;gradientColor=none;fontFamily=Helvetica;fontSize=16;fontColor=#2F5B7C;align=center;opacity=50;spacing=15;" vertex="1" parent="1">
          <mxGeometry x="860" y="617.5" width="40" height="40" as="geometry" />
        </mxCell>
        <mxCell id="U8a9kqxpGam07MCW7ury-21708" value="" style="ellipse;whiteSpace=wrap;html=1;aspect=fixed;rounded=1;shadow=0;glass=0;labelBackgroundColor=none;strokeColor=none;strokeWidth=1;fillColor=#FF05EE;gradientColor=none;fontFamily=Helvetica;fontSize=16;fontColor=#2F5B7C;align=left;opacity=50;spacing=15;" vertex="1" parent="1">
          <mxGeometry x="840" y="640" width="40" height="40" as="geometry" />
        </mxCell>
        <mxCell id="U8a9kqxpGam07MCW7ury-21709" value="" style="ellipse;whiteSpace=wrap;html=1;aspect=fixed;rounded=1;shadow=0;glass=0;labelBackgroundColor=none;strokeColor=none;strokeWidth=1;fillColor=#8095FF;gradientColor=none;fontFamily=Helvetica;fontSize=16;fontColor=#2F5B7C;align=center;opacity=50;spacing=15;" vertex="1" parent="1">
          <mxGeometry x="630" y="740" width="40" height="40" as="geometry" />
        </mxCell>
        <mxCell id="U8a9kqxpGam07MCW7ury-21710" value="" style="ellipse;whiteSpace=wrap;html=1;aspect=fixed;rounded=1;shadow=0;glass=0;labelBackgroundColor=none;strokeColor=none;strokeWidth=1;fillColor=#FF05EE;gradientColor=none;fontFamily=Helvetica;fontSize=16;fontColor=#2F5B7C;align=left;opacity=50;spacing=15;" vertex="1" parent="1">
          <mxGeometry x="870" y="640" width="40" height="40" as="geometry" />
        </mxCell>
        <mxCell id="U8a9kqxpGam07MCW7ury-21711" value="" style="ellipse;whiteSpace=wrap;html=1;aspect=fixed;rounded=1;shadow=0;glass=0;labelBackgroundColor=none;strokeColor=none;strokeWidth=1;fillColor=#8095FF;gradientColor=none;fontFamily=Helvetica;fontSize=16;fontColor=#2F5B7C;align=center;opacity=50;spacing=15;" vertex="1" parent="1">
          <mxGeometry x="860" y="650" width="40" height="40" as="geometry" />
        </mxCell>
      </root>
    </mxGraphModel>
  </diagram>
</mxfile>
